<?xml version="1.0" standalone="no"?>
<!DOCTYPE svg PUBLIC "-//W3C//DTD SVG 20010904//EN"
 "http://www.w3.org/TR/2001/REC-SVG-20010904/DTD/svg10.dtd">
<svg version="1.0" xmlns="http://www.w3.org/2000/svg"
 width="700.000000pt" height="700.000000pt" viewBox="0 0 700.000000 700.000000"
 preserveAspectRatio="xMidYMid meet">
<metadata>
Created by potrace 1.11, written by Peter Selinger 2001-2013
</metadata>
<g transform="translate(0.000000,700.000000) scale(0.100000,-0.100000)"
fill="#000000" stroke="none">
<path d="M3105 6589 c-178 -11 -405 -35 -562 -60 -538 -85 -824 -211 -1002
-440 -39 -51 -93 -172 -116 -262 -35 -140 -45 -308 -45 -783 l0 -434 1060 0
1060 0 0 -135 0 -135 -1060 0 -1060 0 2 -1532 c3 -1681 -1 -1558 60 -1615 50
-47 92 -56 285 -61 l181 -4 4 -237 c3 -235 3 -236 31 -293 35 -70 110 -140
180 -166 72 -27 225 -52 317 -52 91 0 230 22 315 50 77 26 153 83 185 140 25
44 25 49 28 303 l3 257 529 0 529 0 3 -237 c3 -225 4 -241 27 -290 31 -69 111
-144 181 -170 132 -50 328 -65 486 -38 182 31 286 87 333 180 26 49 26 53 29
302 l3 253 154 0 c203 0 244 9 305 69 31 30 52 60 59 86 8 28 11 670 11 2210
0 2320 1 2270 -49 2409 -34 96 -80 165 -171 256 -129 129 -295 218 -530 283
-433 121 -1162 181 -1765 146z m-635 -675 c144 -68 231 -205 231 -364 -1 -90
-18 -151 -65 -224 -137 -214 -436 -240 -617 -54 -155 160 -142 426 29 580 80
73 155 98 272 95 71 -2 96 -7 150 -33z m2185 -2030 c41 -19 65 -67 65 -130 0
-48 -418 -2039 -446 -2126 -9 -28 -28 -58 -47 -74 -28 -24 -37 -26 -86 -21
-65 7 -51 -2 -454 296 l-287 213 -179 -174 c-144 -141 -187 -177 -218 -185
-50 -13 -101 -6 -112 16 -5 9 -62 192 -126 406 -65 215 -123 395 -129 401 -6
6 -161 58 -345 115 -350 108 -391 126 -391 176 0 38 16 60 66 89 64 38 2592
1013 2627 1013 16 1 44 -6 62 -15z"/>
</g>
</svg>
